<svg xmlns="http://www.w3.org/2000/svg" viewBox="0 0 512 512" width="512" height="512">
  <!-- Background -->
  <rect width="512" height="512" fill="#3b82f6" rx="80"/>

  <!-- Nest container -->
  <g transform="translate(256, 256)">
    <!-- Outer glow -->
    <circle cx="0" cy="0" r="140" fill="#ffffff" opacity="0.1"/>

    <!-- Nest base shadow -->
    <ellipse cx="0" cy="30" rx="100" ry="40" fill="#1e3a8a" opacity="0.3"/>

    <!-- Nest base -->
    <ellipse cx="0" cy="25" rx="100" ry="40" fill="#8B5A3C"/>
    <ellipse cx="0" cy="20" rx="100" ry="40" fill="#A0724E"/>

    <!-- Nest texture lines -->
    <path d="M -80 20 Q -70 15 -60 20" stroke="#654321" stroke-width="3" fill="none"/>
    <path d="M -40 18 Q -30 13 -20 18" stroke="#654321" stroke-width="3" fill="none"/>
    <path d="M 20 18 Q 30 13 40 18" stroke="#654321" stroke-width="3" fill="none"/>
    <path d="M 60 20 Q 70 15 80 20" stroke="#654321" stroke-width="3" fill="none"/>

    <!-- Eggs -->
    <ellipse cx="-30" cy="15" rx="20" ry="28" fill="#F4D03F"/>
    <ellipse cx="30" cy="15" rx="20" ry="28" fill="#F4D03F"/>
    <ellipse cx="0" cy="5" rx="20" ry="28" fill="#F4D03F"/>

    <!-- Egg highlights -->
    <ellipse cx="-25" cy="8" rx="8" ry="12" fill="#FFF9E6" opacity="0.8"/>
    <ellipse cx="35" cy="8" rx="8" ry="12" fill="#FFF9E6" opacity="0.8"/>
    <ellipse cx="5" cy="-2" rx="8" ry="12" fill="#FFF9E6" opacity="0.8"/>

    <!-- Decorative leaf -->
    <g transform="translate(-90, -40)">
      <path d="M 0 0 Q -15 -10 -10 -25" stroke="#52B788" stroke-width="4" fill="none" stroke-linecap="round"/>
      <ellipse cx="-8" cy="-15" rx="10" ry="15" fill="#52B788" opacity="0.8" transform="rotate(-20 -8 -15)"/>
    </g>
  </g>
</svg>
