<svg xmlns="http://www.w3.org/2000/svg" viewBox="0 0 64 64" width="64" height="64">
  <!-- Fundo circular -->
  <circle cx="32" cy="32" r="30" fill="#8B5A3C"/>

  <!-- Ninho -->
  <g>
    <!-- Base do ninho -->
    <ellipse cx="32" cy="38" rx="18" ry="8" fill="#654321"/>
    <ellipse cx="32" cy="36" rx="18" ry="8" fill="#8B5A3C"/>

    <!-- Galhos do ninho - camada inferior -->
    <path d="M 14 36 Q 16 34 18 36" stroke="#654321" stroke-width="1.5" fill="none"/>
    <path d="M 20 35 Q 22 33 24 35" stroke="#654321" stroke-width="1.5" fill="none"/>
    <path d="M 40 35 Q 42 33 44 35" stroke="#654321" stroke-width="1.5" fill="none"/>
    <path d="M 46 36 Q 48 34 50 36" stroke="#654321" stroke-width="1.5" fill="none"/>

    <!-- Ovos/Interior do ninho -->
    <ellipse cx="28" cy="36" rx="4" ry="5" fill="#F4D03F"/>
    <ellipse cx="36" cy="36" rx="4" ry="5" fill="#F4D03F"/>
    <ellipse cx="32" cy="34" rx="4" ry="5" fill="#F4D03F"/>

    <!-- Brilho nos ovos -->
    <ellipse cx="29" cy="34" rx="1.5" ry="2" fill="#FFF9E6" opacity="0.6"/>
    <ellipse cx="37" cy="34" rx="1.5" ry="2" fill="#FFF9E6" opacity="0.6"/>
    <ellipse cx="33" cy="32" rx="1.5" ry="2" fill="#FFF9E6" opacity="0.6"/>
  </g>
</svg>
